<svg xmlns="http://www.w3.org/2000/svg" width="1200" height="630" viewBox="0 0 1200 630">
  <defs>
    <linearGradient id="bg" x1="0" y1="0" x2="0" y2="1"><stop offset="0" stop-color="#0c1620"/><stop offset="1" stop-color="#16242e"/></linearGradient>
    <radialGradient id="glow" cx="0.85" cy="0.0" r="0.85"><stop offset="0" stop-color="#13929e" stop-opacity="0.26"/><stop offset="1" stop-color="#13929e" stop-opacity="0"/></radialGradient>
    <pattern id="ties" width="74" height="40" patternUnits="userSpaceOnUse"><rect x="0" y="0" width="4" height="40" fill="#22333d"/></pattern>
  </defs>
  <rect width="1200" height="630" fill="url(#bg)"/>
  <rect width="1200" height="630" fill="url(#glow)"/>
  <rect x="80" y="66" width="64" height="64" rx="15" fill="#0e7c86"/>
  <g stroke="#ffffff" stroke-width="5" stroke-linecap="round">
    <line x1="99" y1="80" x2="99" y2="116"/><line x1="125" y1="80" x2="125" y2="116"/>
    <line x1="90" y1="90" x2="134" y2="90"/><line x1="90" y1="106" x2="134" y2="106"/>
  </g>
  <text x="164" y="117" font-family="Inter, Arial, Helvetica, sans-serif" font-weight="bold" font-size="46" fill="#ffffff" letter-spacing="-1">LoopRails</text>
  <text x="82" y="212" font-family="Inter, Arial, Helvetica, sans-serif" font-weight="bold" font-size="22" letter-spacing="4" fill="#5fd0d8">LOOPRAILS · BUILD A LOOP</text>
  <text x="80" y="296" font-family="Inter, Arial, Helvetica, sans-serif" font-weight="bold" font-size="58" fill="#ffffff" letter-spacing="-1">Multi-agent</text>
  <text x="80" y="362" font-family="Inter, Arial, Helvetica, sans-serif" font-weight="bold" font-size="58" fill="#ffffff" letter-spacing="-1">loops</text>
  <text x="82" y="478" font-family="Inter, Arial, Helvetica, sans-serif" font-size="28" fill="#b9cdd2">When more agents help, and how they break.</text>
  
  <g>
    <rect x="80" y="512" width="1040" height="40" fill="url(#ties)"/>
    <rect x="80" y="512" width="1040" height="4" rx="2" fill="#2c4855"/>
    <rect x="80" y="548" width="1040" height="4" rx="2" fill="#2c4855"/>
    <rect x="300" y="514" width="64" height="34" rx="9" fill="#13929e"/>
    <circle cx="332" cy="531" r="5" fill="#bff3f6"/>
    <rect x="1096" y="504" width="9" height="56" rx="3" fill="#f0b429"/>
  </g>
  <text x="80" y="600" font-family="Inter, Arial, Helvetica, sans-serif" font-size="24" fill="#8aa6ad">looprails.dev</text>
  <text x="1120" y="600" text-anchor="end" font-family="Inter, Arial, Helvetica, sans-serif" font-size="24" fill="#8aa6ad">by Brenn Hill</text>
</svg>
